<svg width="161" height="191" viewBox="0 0 161 191" fill="none" xmlns="http://www.w3.org/2000/svg">
<path d="M7.82681 37.457C7.82681 60.9091 9.25404 84.5786 10.023 108.032C10.2981 116.423 10.8611 126.138 12.3379 134.445C13.745 142.36 13.1689 150.49 13.1689 158.544C13.1689 162.276 12.699 170.539 15.3057 173.145" stroke="#241623" stroke-width="14" stroke-linecap="round"/>
<path d="M140.31 33.1833C140.31 68.9892 145.801 104.49 151.232 139.787C152.827 150.156 153.131 161.31 153.131 171.84C153.131 173.335 153.944 179.277 152.3 179.497C145.16 180.449 137.257 179.629 130.101 179.793C108.171 180.297 86.2674 180.534 64.334 180.624C48.5631 180.689 32.8929 182.761 17.1458 182.761C12.692 182.761 6.77839 184.865 9.96365 179.556" stroke="#241623" stroke-width="14" stroke-linecap="round"/>
<path d="M9.96364 39.5938C7.44405 37.7941 19.4166 10.2938 24.9214 7.54144" stroke="#241623" stroke-width="14" stroke-linecap="round"/>
<path d="M29.1951 9.67827C47.5889 5.53966 67.6534 7.70429 86.2958 8.07565C104.15 8.43131 122.535 7.54523 140.31 9.67827C141.607 9.83387 138.173 28.4462 138.173 32.1149" stroke="#241623" stroke-width="14" stroke-linecap="round"/>
<path d="M27.0582 15.0203C32.4016 17.9349 34.3082 29.4163 36.674 34.6079C39.0504 39.8229 39.7952 37.7302 34.4778 39.0596C27.9635 40.6882 19.8841 42.7991 13.1689 42.7991" stroke="#241623" stroke-width="14" stroke-linecap="round"/>
<path d="M56.9738 80.1935C52.0475 74.2819 54.6054 64.5121 61.9597 61.615C70.9721 58.0646 84.7346 65.3451 86.8894 74.8514C90.3035 89.9136 70.8632 99.8535 70.8632 114.383" stroke="#241623" stroke-width="14" stroke-linecap="round"/>
<path d="M68.7263 141.093C67.6264 138.107 70.9555 132.16 71.8722 136.285C72.4599 138.93 71.482 138.731 69.7948 137.888" stroke="#241623" stroke-width="14" stroke-linecap="round"/>
</svg>
