<svg width="160" height="190" viewBox="0 0 160 190" fill="none" xmlns="http://www.w3.org/2000/svg">
<path d="M7 37.2776C7 60.7297 8.42723 84.3992 9.19618 107.852C9.47132 116.244 10.0342 125.959 11.5111 134.266C12.9182 142.181 12.3421 150.311 12.3421 158.364C12.3421 162.096 11.8722 170.359 14.4789 172.966" stroke="#241623" stroke-width="14" stroke-linecap="round"/>
<path d="M139.483 33.004C139.483 68.8098 144.974 104.31 150.405 139.608C152 149.976 152.304 161.131 152.304 171.66C152.304 173.156 153.117 179.098 151.473 179.317C144.333 180.269 136.43 179.449 129.274 179.614C107.345 180.118 85.4406 180.354 63.5072 180.445C47.7363 180.51 32.0661 182.582 16.3189 182.582C11.8652 182.582 5.95158 184.685 9.13684 179.376" stroke="#241623" stroke-width="14" stroke-linecap="round"/>
<path d="M9.13683 39.4144C6.61724 37.6147 18.5898 10.1145 24.0946 7.36206" stroke="#241623" stroke-width="14" stroke-linecap="round"/>
<path d="M28.3683 9.49889C46.7621 5.36028 66.8266 7.52491 85.469 7.89627C103.323 8.25193 121.708 7.36585 139.483 9.49889C140.78 9.65449 137.346 28.2668 137.346 31.9356" stroke="#241623" stroke-width="14" stroke-linecap="round"/>
<path d="M26.2314 14.8409C31.5748 17.7555 33.4813 29.2369 35.8472 34.4285C38.2236 39.6435 38.9684 37.5509 33.651 38.8802C27.1367 40.5088 19.0573 42.6197 12.3421 42.6197" stroke="#241623" stroke-width="14" stroke-linecap="round"/>
<path d="M25.3683 72.8798H125.09" stroke="#241623" stroke-width="7" stroke-linecap="round"/>
<path d="M31.8542 94.7698C60.4068 95.7896 89.2123 100.175 117.793 98.0578C121.817 97.7598 125.921 98.0128 129.954 98.0128" stroke="#241623" stroke-width="7" stroke-linecap="round"/>
<path d="M31.8542 124.767C62.6706 126.463 93.4208 127.2 124.279 127.2" stroke="#241623" stroke-width="7" stroke-linecap="round"/>
<path d="M34.2865 153.143C67.2697 153.143 100.252 153.143 133.197 153.143" stroke="#241623" stroke-width="7" stroke-linecap="round"/>
</svg>
