<svg width="40" height="39" viewBox="0 0 40 39" fill="none" xmlns="http://www.w3.org/2000/svg">
<path d="M32.6406 21.5052C33.5122 21.9957 28.391 30.2337 27.5047 31.2215C25.9398 32.966 24.7115 34.4789 22.2557 34.6404C18.6836 34.8753 15.0301 34.2692 11.552 33.3156C9.55351 32.7677 8.97827 32.4269 7.58952 30.9933C6.31176 29.6742 4.69847 27.9445 4.36235 26.0411C2.95845 18.0913 3.57764 7.44174 12.7524 4.61222C15.2104 3.85415 17.157 3.49152 19.7173 3.53221C22.1362 3.57065 24.5732 4.54727 26.8962 5.18415C30.2058 6.09148 32.6738 7.63805 34.1245 10.9027C34.8964 12.64 35.7812 14.1963 35.7878 16.1591C35.7943 18.0668 35.6305 20.0358 35.1274 21.8708C34.3489 24.7104 34.3281 28.2155 32.3477 30.5946C31.5376 31.5678 30.4148 32.2936 29.3601 32.8943C28.2777 33.511 26.9223 33.3352 25.8455 33.8136C24.966 34.2044 23.7227 34.0787 22.774 34.3226C21.9743 34.5281 23.4819 34.6339 23.7365 34.5864C24.713 34.4041 25.3216 34.2177 26.2078 33.8554C29.7713 32.3984 31.2422 29.39 32.6429 26.1625C34.3295 22.2766 33.7348 17.4637 31.9032 13.8149C31.3394 12.6919 30.9203 10.9649 29.9313 10.1555C29.4339 9.74848 29.0981 9.16083 28.563 8.80306C28.3026 8.62898 26.4181 7.38142 27.4388 7.66124C30.3085 8.448 31.1363 10.8822 32.7259 13.1207C33.6602 14.4364 33.3081 16.0468 33.762 17.4147" stroke="#241623" stroke-width="2" stroke-linecap="round"/>
<path d="M19.397 19.6011C19.1829 19.5126 19.259 19.4793 19.2223 19.2945" stroke="#241623" stroke-width="30" stroke-linecap="round"/>
<path d="M18.1344 18.6487C18.1344 17.9946 18.5286 17.8435 19.1812 17.8435C20.0493 17.8435 20.6996 17.7197 21.1137 18.6398C21.7462 20.0454 19.087 19.8257 18.1702 19.9013C17.1663 19.9841 15.034 20.0192 15.7904 18.3624C16.2194 17.4226 20.2386 16.4384 20.38 17.8525C20.5737 19.7892 18.0969 20.0886 16.6403 19.9102C15.9703 19.8282 15.0986 19.263 14.8241 18.6129C14.424 17.6654 15.7467 17.3813 16.3987 17.2352C17.452 16.9991 19.5504 16.6538 20.4784 17.3962C21.1242 17.9128 20.9542 19.0872 20.389 19.5792C19.4866 20.3646 15.8456 21.3197 15.6472 19.5345C15.4965 18.1781 17.4707 17.2826 18.5012 17.0025C20.1674 16.5498 23.1444 16.1841 24.2003 17.933C26.4988 21.7399 19.7024 21.5845 17.7229 21.2791C16.9874 21.1656 15.9293 20.9718 15.7367 20.0981C15.562 19.3058 15.8713 18.3623 16.5598 17.9151C17.8962 17.0471 20.0189 16.7526 21.5699 16.9131C22.8044 17.0408 23.0099 18.2919 22.5183 19.275C21.8044 20.7028 20.1273 21.017 18.6891 21.0554C17.5625 21.0854 15.8473 21.3319 15.2625 20.0892C14.6368 18.7596 15.9747 17.8165 17.0429 17.3783C18.0562 16.9626 20.3147 16.1313 21.0868 17.3962C21.8938 18.7183 20.3099 20.1059 19.1901 20.4739C18.0949 20.8337 16.0895 21.0817 15.343 19.9371C14.5072 18.6555 15.9356 17.7383 16.9713 17.3067C17.9712 16.8901 19.4742 16.5874 20.2727 17.5662C20.8639 18.2909 21.2296 19.9839 20.3442 20.6349C19.224 21.4586 17.0484 21.0456 15.9246 20.4649C14.5209 19.7397 14.0424 18.2002 15.6204 17.3872C17.4104 16.4651 20.0579 16.5157 21.892 17.2709C23.1932 17.8067 24.5849 19.4935 22.9835 20.5812C21.668 21.4748 19.3024 21.9253 17.7944 21.2791C16.8989 20.8953 16.4157 19.1462 17.1503 18.3982C18.4478 17.0771 24.7328 17.2209 23.7977 20.0981C23.267 21.7308 20.3958 21.8743 19.0201 21.8427C17.6227 21.8106 15.9785 21.5352 15.9067 19.8476C15.7666 16.5558 22.9196 16.4488 22.8941 19.2034C22.8623 22.6332 14.164 23.9517 13.8937 20.1339C13.7753 18.4624 16.0577 17.9961 17.3024 17.7988C19.0801 17.517 21.4379 18.1493 22.2588 19.9281C23.6931 23.0357 17.1641 23.1302 15.9246 21.0643C14.189 18.1717 21.0577 17.4584 22.2141 20.0981C23.6377 23.3477 14.4678 24.0582 14.502 20.7065C14.5196 18.9886 16.9807 18.5478 18.2507 18.443C20.2135 18.2809 23.2736 18.7927 23.9498 21.0465C24.9172 24.2712 18.6849 22.3041 18.0181 20.1786C17.0132 16.9755 25.2898 17.6081 26.2401 19.776C27.3709 22.3556 17.2973 22.1029 17.7944 20.0265C18.3376 17.758 25.9487 17.0914 25.8196 19.8655C25.6789 22.8906 19.3913 23.2638 18.9128 20.3397C18.3016 16.6048 27.8477 17.5545 26.2938 20.8675C25.293 23.0013 21.0041 22.7428 19.1722 22.5674C17.9331 22.4487 13.5552 21.8095 13.9295 19.7044C14.1945 18.2135 16.2205 17.6723 17.4545 17.4767C18.9515 17.2394 22.3847 17.5204 22.6167 19.4539C22.8037 21.0118 21.6794 21.6641 20.2995 22.0037C19.2168 22.2703 17.1747 22.5477 16.6493 21.2164C15.5409 18.4087 20.9179 16.0116 21.9278 18.5235C22.6439 20.3046 21.1321 21.9335 19.5122 22.4063C18.3756 22.7382 15.9833 23.0905 15.0567 22.0664C14.5727 21.5314 14.7526 20.5953 14.7526 19.946C14.7526 19.4333 14.5113 19.0004 14.2694 18.5772C13.871 17.8799 12.8995 19.6939 12.7843 19.9371C12.4607 20.6202 12.8158 20.9663 13.1064 21.5475C14.5765 24.4878 18.6351 24.674 21.6415 24.6072C22.9209 24.5788 25.2202 23.7536 25.2202 22.2006C25.2202 20.9561 25.7033 19.7639 25.7033 18.5235C25.7033 17.8806 25.9589 16.0721 24.9786 16.0721C23.3097 16.0721 21.6079 15.75 19.9059 15.75C18.4863 15.75 17.0668 15.75 15.6472 15.75C14.0177 15.75 13.9937 16.8878 13.5895 18.2014C13.1716 19.5597 12.4117 23.0467 13.7863 23.9631" stroke="#FAFFD8" stroke-width="2" stroke-linecap="round"/>
<path d="M25.7034 17.1992C25.7034 18.3274 25.8644 19.4175 25.8644 20.5453C25.8644 21.3037 25.8644 22.0637 25.8644 20.7421" stroke="#FAFFD8" stroke-width="2" stroke-linecap="round"/>
<path d="M25.8643 16.8774C26.9194 17.194 26.6696 19.8157 26.6696 20.7066C26.6696 21.5721 26.5426 22.6962 26.1506 23.4801C25.6988 24.3839 24.4242 24.2627 23.6098 24.2853C22.058 24.3284 20.5071 24.4464 18.9396 24.4464C17.8721 24.4464 16.3869 24.7186 15.3967 24.2495C14.7133 23.9258 14.192 22.7 13.9831 21.995C13.7316 21.1461 13.401 20.1735 13.3032 19.2931C13.2575 18.8816 12.4579 17.7832 12.9811 17.5216" stroke="#FAFFD8" stroke-width="2" stroke-linecap="round"/>
<path d="M13.4638 18.4877C12.5903 18.3907 12.4404 15.7824 12.1397 15.1059C11.9667 14.7166 11.9807 13.6089 12.5781 14.3902C13.2113 15.2182 14.1904 15.7126 14.7522 16.5553" stroke="#FAFFD8" stroke-width="2" stroke-linecap="round"/>
<path d="M24.2537 16.7161C24.3535 15.8179 26.1571 12.8511 27.2329 12.8511C28.151 12.8511 26.0251 16.7666 26.0251 17.3602" stroke="#FAFFD8" stroke-width="2" stroke-linecap="round"/>
<path d="M16.2017 16.8772C15.425 16.1005 12.702 11.8734 12.0146 14.6227" stroke="#FAFFD8" stroke-width="2" stroke-linecap="round"/>
<path d="M17.9736 26.8617C17.0387 27.8516 16.825 29.5711 16.6942 30.8788C16.6358 31.4623 16.6852 32.073 16.6852 32.6592C16.6852 34.0982 16.6852 32.1427 16.6852 31.7287C16.6852 30.229 16.6831 28.8212 17.2578 27.4254C17.5861 26.6281 18.6563 25.5734 19.584 25.5734C20.0517 25.5734 20.5313 25.5401 20.9976 25.5734C21.4763 25.6076 22.0633 26.2697 22.4469 26.5396C23.1318 27.0216 23.4466 28.1805 23.6458 28.9553C24.0013 30.3376 23.4489 31.5318 23.4489 32.9007C23.4489 33.5467 23.0215 32.1539 23.0016 32.015C22.8848 31.1972 22.8174 30.3768 22.6795 29.5636C22.5923 29.0492 22.2985 28.7443 22.1248 28.2753C21.7858 27.3598 21.6775 27.8211 21.6775 28.5437C21.6775 29.7485 21.6775 30.9533 21.6775 32.1582C21.6775 32.4439 21.7398 32.8046 21.597 33.0618C21.4655 33.2984 21.5165 33.6035 21.5165 33.867C21.5165 34.3375 21.3554 32.1452 21.3554 31.7914C21.3554 30.5891 21.4385 29.384 20.9439 28.2574C20.916 28.1938 20.3715 30.6905 20.2997 31.1382C20.1995 31.7632 20.1168 32.4118 20.076 33.0439C20.0636 33.2362 20.1645 33.7489 20.0313 33.9117C19.7284 34.2819 19.6069 30.9753 19.6198 30.7625C19.6818 29.7351 19.7286 28.4929 20.2997 27.5954C20.7379 26.9068 20.3067 28.1605 20.2013 28.49C19.8964 29.4429 19.5693 30.7549 19.0293 31.6035C18.7157 32.0962 18.6177 31.6736 18.6177 31.2546C18.6177 30.3096 18.6126 27.917 19.745 27.3806C20.5634 26.993 20.8723 28.6912 20.8723 29.1968C20.8723 29.6203 20.3751 29.7842 20.1029 30.0467C19.6446 30.4886 19.3826 30.9684 19.1009 31.5319C18.677 32.3796 18.2192 33.0376 17.5262 33.6612C17.4175 33.7591 16.9595 33.7865 17.1057 33.7865C17.3682 33.7865 17.6306 33.7865 17.893 33.7865C18.4723 33.7865 19.0418 33.9475 19.6555 33.9475C20.1685 33.9475 20.6814 33.9475 21.1944 33.9475C21.515 33.9475 21.8405 33.9653 22.1606 33.9475C22.473 33.9302 22.4614 33.6254 22.8048 33.6254C23.4962 33.6254 22.6078 34.1086 22.2411 34.1086C21.597 34.1086 20.9528 34.1086 20.3087 34.1086C19.4195 34.1086 17.5971 34.4478 16.9715 33.8223C16.9164 33.7672 16.7231 33.3294 16.6942 33.4018C16.6308 33.5603 16.6473 34.016 16.6942 34.1801C16.7262 34.2921 18.2712 34.4449 18.4567 34.5112C19.3623 34.8346 20.691 34.5917 21.6417 34.5917C22.221 34.5917 22.7244 34.2696 23.2879 34.2696" stroke="#FAFFD8" stroke-width="2" stroke-linecap="round"/>
<path d="M17.9731 31.6929C18.3894 31.1253 18.7449 30.2818 18.7783 29.5636C18.7981 29.1382 19.0022 28.6332 19.503 28.6332C20.0568 28.6332 21.907 27.0572 21.194 26.7007" stroke="#FAFFD8" stroke-width="2" stroke-linecap="round"/>
<path d="M18.1794 25.5166C17.8796 25.5499 17.5124 25.9786 17.3104 26.1925C16.9799 26.5424 16.9058 26.8487 16.8222 27.3084C16.6636 28.1805 16.4857 28.973 16.4413 29.8619C16.4194 30.3003 16.169 30.7408 16.1516 31.1923C16.1359 31.6006 16.1516 32.0122 16.1516 32.4208C16.1516 32.831 15.9333 34.4843 16.3447 34.69" stroke="#FAFFD8" stroke-width="2" stroke-linecap="round"/>
<path d="M22.4282 25.2271C23.7384 26.4062 23.7801 27.8138 23.7801 29.4758C23.7801 31.0267 23.6835 32.6311 23.6835 34.2073" stroke="#FAFFD8" stroke-width="2" stroke-linecap="round"/>
<path d="M17.2138 25.2271C16.6344 25.2512 16.2544 26.4814 15.9156 26.9169C15.7401 27.1425 15.6796 27.9093 15.6688 28.199C15.6525 28.6397 15.5292 29.0771 15.4704 29.5187C15.3388 30.5052 15.186 31.546 15.186 32.5443C15.186 33.1129 15.186 33.6816 15.186 34.2502C15.186 34.5295 15.3792 34.7934 15.3792 35.0764" stroke="#FAFFD8" stroke-width="2" stroke-linecap="round"/>
<path d="M16.9245 25.5167C16.516 25.5167 16.2389 25.3561 15.8623 25.2485C15.521 25.151 15.0231 24.8763 14.7036 24.8408C14.0478 24.7679 13.28 23.8527 12.9869 23.2958C12.4689 22.3116 12.193 21.0521 12.193 19.9376C12.193 19.4302 12.0918 18.8339 12.311 18.3711C12.4835 18.0069 12.6459 17.5917 12.7724 17.2124" stroke="#FAFFD8" stroke-width="2" stroke-linecap="round"/>
<path d="M26.6773 16.4399C27.5646 16.4399 27.3014 22.0082 27.2567 22.813C27.2352 23.1999 26.973 23.6791 26.7953 24.0147C26.5456 24.4864 26.2146 24.2867 25.76 24.4063C25.1791 24.5592 24.4772 24.4546 23.877 24.4546C23.4667 24.4546 22.8264 24.3696 22.5251 24.0683" stroke="#FAFFD8" stroke-width="2" stroke-linecap="round"/>
<path d="M23.5869 24.3579C23.7462 25.1744 24.2359 25.8235 24.3809 26.6539C24.4789 27.2156 24.6776 27.7328 24.7457 28.3116C24.8186 28.9314 24.8422 29.5263 24.8422 30.1516C24.8422 31.8016 24.9528 33.5719 24.5525 35.1728" stroke="#FAFFD8" stroke-width="2" stroke-linecap="round"/>
<path d="M27.5461 17.3088C27.5461 16.6392 27.8358 15.9793 27.8358 15.281C27.8358 14.4658 27.9959 13.4438 27.7393 12.6738" stroke="#FAFFD8" stroke-width="2" stroke-linecap="round"/>
<path d="M12.5788 18.2745C12.3892 18.2271 12.4822 17.6268 12.4822 17.4806C12.4822 17.1185 12.4004 16.9189 12.3105 16.5793C12.214 16.2145 12.1925 15.9002 12.1925 15.5171C12.1925 14.8534 12.1104 14.1657 11.9028 13.543" stroke="#FAFFD8" stroke-width="2" stroke-linecap="round"/>
<path d="M15.4761 16.3431C15.4761 15.501 17.3703 15.1739 17.9867 14.9913C19.0977 14.6621 20.5862 14.8947 21.7311 14.8947C22.8301 14.8947 23.9274 14.899 24.4563 15.9569" stroke="#FAFFD8" stroke-width="2" stroke-linecap="round"/>
<path d="M26.5804 24.0684C25.9534 24.4167 25.4647 24.9065 24.7832 25.1842C24.2126 25.4167 23.6434 25.903 23.0076 25.903" stroke="#FAFFD8" stroke-width="2" stroke-linecap="round"/>
<path d="M26.5805 23.9717C25.394 25.1125 23.6952 25.1304 22.1387 25.1304" stroke="#FAFFD8" stroke-width="2" stroke-linecap="round"/>
<path d="M13.7378 23.4888C14.7475 24.7739 15.9562 25.221 17.5037 25.7097" stroke="#FAFFD8" stroke-width="2" stroke-linecap="round"/>
<path d="M16.2483 30.055C15.2998 29.976 14.8316 29.4354 14.022 30.1945C13.4241 30.755 12.488 31.2047 11.6669 30.8275C10.5253 30.303 9.67365 29.5134 8.90955 28.5583C8.83183 28.4612 8.70997 28.3169 8.58231 28.3169C8.4856 28.3169 8.78435 28.3484 8.85591 28.4135C8.96902 28.5163 9.03608 28.5714 9.17778 28.628C9.69341 28.8343 10.0712 29.506 10.4063 29.9155C11.1673 30.8457 11.9031 31.4069 13.1797 31.4069C13.9155 31.4069 14.5882 30.9426 15.0895 30.4413" stroke="#FAFFD8" stroke-linecap="round"/>
<path d="M9.87524 28.9927C11.0128 30.1302 12.4289 30.9478 14.0167 31.2565C14.9731 31.4425 15.8541 31.0711 16.7633 30.8488C16.9892 30.7936 17.3105 30.7008 17.3105 30.4411" stroke="#FAFFD8" stroke-linecap="round"/>
<path d="M16.3096 35.0157C17.0524 35.0157 17.7858 35.3155 18.5371 35.3877C19.5637 35.4864 20.6838 35.5009 21.7155 35.4245C22.2197 35.3871 22.5771 35.024 23.052 34.9376C23.1823 34.9139 23.4013 34.8183 23.5297 34.855C23.5448 34.8593 22.9648 35.2918 22.8867 35.3418C22.3 35.7173 21.6717 35.5583 21.0036 35.6128C19.9639 35.6977 18.9232 35.6771 17.8804 35.6771C17.5047 35.6771 16.5823 35.6438 16.3922 35.2637" stroke="#FAFFD8" stroke-linecap="round"/>
</svg>
