<svg width="40" height="39" viewBox="0 0 40 39" fill="none" xmlns="http://www.w3.org/2000/svg">
<path d="M32.6406 21.5052C33.5122 21.9957 28.391 30.2337 27.5047 31.2215C25.9398 32.966 24.7115 34.4789 22.2557 34.6404C18.6836 34.8753 15.0301 34.2692 11.552 33.3156C9.55351 32.7677 8.97827 32.4269 7.58952 30.9933C6.31176 29.6742 4.69847 27.9445 4.36235 26.0411C2.95845 18.0913 3.57764 7.44174 12.7524 4.61222C15.2104 3.85415 17.157 3.49152 19.7173 3.53221C22.1362 3.57065 24.5732 4.54727 26.8962 5.18415C30.2058 6.09148 32.6738 7.63805 34.1245 10.9027C34.8964 12.64 35.7812 14.1963 35.7878 16.1591C35.7943 18.0668 35.6305 20.0358 35.1274 21.8708C34.3489 24.7104 34.3281 28.2155 32.3477 30.5946C31.5376 31.5678 30.4148 32.2936 29.3601 32.8943C28.2777 33.511 26.9223 33.3352 25.8455 33.8136C24.966 34.2044 23.7227 34.0787 22.774 34.3226C21.9743 34.5281 23.4819 34.6339 23.7365 34.5864C24.713 34.4041 25.3216 34.2177 26.2078 33.8554C29.7713 32.3984 31.2422 29.39 32.6429 26.1625C34.3295 22.2766 33.7348 17.4637 31.9032 13.8149C31.3394 12.6919 30.9203 10.9649 29.9313 10.1555C29.4339 9.74848 29.0981 9.16083 28.563 8.80306C28.3026 8.62898 26.4181 7.38142 27.4388 7.66124C30.3085 8.448 31.1363 10.8822 32.7259 13.1207C33.6602 14.4364 33.3081 16.0468 33.762 17.4147" stroke="#241623" stroke-width="2" stroke-linecap="round"/>
<path d="M19.397 19.6011C19.1829 19.5126 19.259 19.4793 19.2223 19.2945" stroke="#241623" stroke-width="30" stroke-linecap="round"/>
<path d="M20.5482 12.9548C19.2641 12.8619 18.1479 12.7318 16.8815 13.0693C15.8104 13.3548 14.8087 13.9403 14.1485 14.8742C12.6349 17.0152 12.5995 20.7103 14.1485 22.8424C15.2185 24.3152 17.0633 25.2963 18.7658 25.6951C20.2707 26.0476 22.2174 26.2149 23.6632 25.519C24.3941 25.1671 25.7426 24.2686 25.7426 23.2562" stroke="#FAFFD8" stroke-width="4" stroke-linecap="round"/>
<path d="M25.3607 22.701C24.1348 23.0051 23.0135 23.7192 21.7704 24.0305C20.1825 24.4281 18.5104 24.3966 17.047 23.6123C15.7931 22.9402 14.9907 21.9635 14.7002 20.4999C14.3229 18.5989 14.6751 16.6228 15.8715 15.1159C16.3605 14.4999 15.4618 15.9613 15.4301 16.0183C15.0407 16.7177 14.6909 17.4384 14.4116 18.1931C14.3286 18.4174 14.0222 19.0348 14.0891 19.3024C14.1557 19.5691 14.4379 18.8856 14.5898 18.6597C15.327 17.5636 16.0656 16.4737 16.8858 15.4416C17.1023 15.1692 17.7827 14.3807 17.5775 14.6624C17.0526 15.3831 16.4832 16.0703 15.9394 16.7755C15.7262 17.0519 15.1301 17.9049 15.2773 17.5855C15.7389 16.5845 16.3808 15.643 16.9494 14.7064C17.0748 14.5 17.8738 13.3531 17.1701 14.2398C16.6322 14.9176 16.0714 15.5777 15.5659 16.2825C15.456 16.4357 15.1411 16.8996 15.2773 16.7711C15.6403 16.4289 15.8958 15.8297 16.1898 15.4284C16.505 14.9982 16.7261 14.7275 17.0682 14.3234C17.236 14.1254 17.3648 13.864 17.5945 13.7511C17.7244 13.6873 17.4888 14.0293 17.4205 14.1606C17.2534 14.4813 17.1186 14.7279 16.9452 15.0454C16.8401 15.2378 16.4586 15.7097 16.6608 15.6397C17.1067 15.4856 17.6158 14.7687 17.934 14.4423C18.1118 14.2599 18.2771 14.0643 18.4602 13.8876C18.4834 13.8653 18.4605 13.9569 18.4432 13.9845C18.0573 14.6008 17.5853 15.1551 17.1871 15.763C17.069 15.9432 16.7586 16.5066 16.8985 16.3441C17.2859 15.894 17.5936 15.332 17.9128 14.8297C18.51 13.8897 17.7796 14.9731 17.6539 15.1687C17.0196 16.1557 16.38 17.1494 15.8418 18.1975C15.7658 18.3454 15.572 18.806 15.6508 18.6597C16.0087 17.9954 16.2969 17.2876 16.6269 16.6082C16.8364 16.177 17.2278 15.5226 16.7542 16.4586C16.2233 17.5077 15.6059 18.5034 15.0397 19.5314C14.956 19.6833 14.7485 20.1595 14.8445 20.0156C15.1682 19.5305 15.3587 18.9092 15.6084 18.3824C15.6986 18.1919 16.2314 17.0898 15.8078 18.1182C15.5188 18.8199 15.2069 19.5121 14.9378 20.2225C14.6394 21.0105 15.5071 18.5886 16.0582 17.9641C16.1252 17.8882 16.1013 18.173 16.0752 18.2723C16.0107 18.5176 15.8054 19.1249 15.7272 19.3553C15.6294 19.6432 15.3678 20.505 15.3877 20.2005C15.4186 19.7275 15.5881 19.2147 15.6932 18.761C15.7753 18.4065 16.131 17.1762 15.6296 18.3031C15.3587 18.912 15.1361 19.5442 14.8657 20.1521C14.5958 20.7587 15.2939 18.8913 15.5362 18.2723C15.6698 17.9311 16.0469 16.927 16.0327 17.295C16.0019 18.095 15.662 18.9741 15.4216 19.7251C15.3144 20.0601 15.0718 20.7259 15.1755 19.9011C15.2599 19.2299 15.3586 18.3251 15.7442 17.7528C15.9054 17.5135 15.8877 18.3292 15.863 18.6201C15.7895 19.4857 15.6339 20.3371 15.4853 21.191C15.4383 21.461 15.4011 21.6566 15.4513 21.1822C15.5539 20.2142 15.7114 19.2372 15.9479 18.2943C16.0582 17.8544 16.1587 17.7187 16.1431 18.2635C16.1103 19.4099 15.9553 20.5592 15.829 21.6973C15.7709 22.2217 15.7006 22.7462 15.6678 23.2733C15.6551 23.4764 15.6551 23.7623 15.6168 23.2865C15.5822 22.8554 15.4994 18.6558 15.8205 18.7213C16.3328 18.8259 16.3503 20.6213 16.3722 20.9049C16.4518 21.9312 16.4137 23.0115 16.7542 23.9953C16.7891 24.0961 16.9438 24.3619 16.9367 24.255C16.8924 23.5885 16.6669 22.8879 16.5335 22.2388C16.3448 21.3204 16.1793 20.3933 15.9394 19.4873C15.8908 19.3041 15.7334 18.761 15.8121 18.9326C16.5699 20.5876 17.1353 22.3012 18.3499 23.6871C18.7598 24.1548 20.277 25.2309 19.7673 24.8845C18.5898 24.0843 15.1626 21.529 16.2619 22.4413C17.3071 23.3086 18.2902 24.0076 19.5891 24.4091C21.0781 24.8694 22.6894 25.2247 24.2488 25.2367C24.6499 25.2398 24.7665 25.1472 24.3379 24.999C23.229 24.6155 21.8693 24.9634 20.7137 24.8361C20.5699 24.8203 19.2182 24.7093 19.9795 24.5676C21.255 24.3301 22.5338 23.9316 23.748 23.467C24.5606 23.1561 23.2707 23.6894 23.1412 23.7355C22.4668 23.9758 20.4031 24.3663 21.1126 24.4399C21.9413 24.5259 22.8311 24.2875 23.5868 23.9601C23.5897 23.9588 24.354 23.5451 23.9772 23.7047C23.3344 23.9771 21.3676 24.6898 22.0123 24.4223C23.0507 23.9914 24.0395 23.3152 24.8811 22.5601C25.4441 22.055 26.0488 21.6705 26.6848 21.2747C27.1391 20.9919 26.9705 21.9084 26.9649 22.2079C26.9202 24.5725 24.0501 25.0485 22.2542 25.1399C21.4406 25.1812 20.524 25.2684 19.7673 24.8977C18.8958 24.4708 18.1655 23.8009 17.3144 23.3481C16.1883 22.7491 18.119 23.6476 18.3584 23.7575C19.3365 24.2069 20.5045 24.2703 21.554 24.3959C21.5834 24.3994 22.1841 24.5448 22.1184 24.2858C22.0972 24.2021 21.8847 24.1241 21.8426 24.1009C21.1225 23.7046 20.4402 23.2265 19.7546 22.7714C18.5606 21.979 17.3362 21.198 16.2492 20.2489C15.8337 19.8862 15.3887 19.4664 15.184 18.9282C14.9729 18.3735 15.5607 18.9355 15.6678 19.0647C16.4073 19.957 17.0747 20.8433 17.9425 21.618C18.7471 22.3364 19.6176 22.9783 20.4633 23.6431C20.6375 23.78 20.8583 23.912 21.015 24.0745C21.0959 24.1584 20.991 24.201 20.9174 24.1934C20.4919 24.1492 19.8599 23.5324 19.5721 23.3085C18.6825 22.6164 17.7964 21.8757 17.1022 20.9665C16.9444 20.7598 16.3107 19.8333 16.5929 19.4873C16.6227 19.4509 16.6651 19.5506 16.6863 19.593C16.793 19.8062 16.879 20.03 16.9834 20.2445C17.4557 21.2155 18.0198 22.107 18.7488 22.8947C19.3157 23.5072 19.9493 24.0456 20.5991 24.5588C20.7185 24.653 21.0496 24.9669 20.9514 24.8493C19.8484 23.5292 18.5797 22.4595 17.3356 21.2791C17.0624 21.0198 16.7316 20.7262 16.5505 20.3766C16.4097 20.1049 16.6115 20.3307 16.6778 20.4382C17.4317 21.6614 18.1621 22.9638 19.0459 24.0921C19.1913 24.2778 18.8736 23.6481 18.7955 23.423C18.3762 22.2147 17.9839 20.9944 17.6709 19.7515C17.4011 18.6801 17.1656 17.5824 17.1277 16.4718C17.118 16.1879 17.0905 15.7873 17.221 15.5165C17.2489 15.4587 17.2385 15.6462 17.2295 15.7102C17.118 16.4991 17.0171 17.2881 17.0088 18.0874C16.9953 19.384 17.2036 20.823 17.934 21.9174C17.938 21.9234 18.0237 22.055 17.9722 21.9482C17.7259 21.4373 17.5933 20.836 17.4417 20.2929C17.1452 19.231 16.8597 18.1565 16.7542 17.0529C16.7306 16.806 16.7123 16.0617 16.733 16.3089C16.8749 18.0021 17.2521 19.7025 18.1462 21.1514C19.1635 22.8 21.022 24.7107 23.0181 24.9021C23.1828 24.9179 23.7638 24.9572 23.8966 24.7965C24.087 24.566 23.2971 24.1675 23.2006 24.1317C21.4246 23.4738 19.6311 22.8323 17.9425 21.9438C17.5185 21.7207 18.207 22.2687 18.3159 22.406C19.1804 23.4962 20.4381 24.075 21.8001 24.0965C22.942 24.1146 23.8064 23.6328 24.6817 22.9299C25.1657 22.5412 25.1198 22.6522 24.5713 22.8595C23.7062 23.1864 22.7946 23.4059 21.8723 23.2777C21.142 23.1762 20.4739 22.8202 19.7546 22.7054C18.9295 22.5737 18.2209 21.807 17.6581 21.1954C15.9815 19.3734 16.6591 16.3395 18.2565 14.7064C18.561 14.3951 18.8849 14.1379 19.292 14.0197C19.4382 13.9772 19.5771 13.9262 19.7291 13.9096C19.9622 13.8842 19.3847 14.2396 19.2071 14.3983C18.1466 15.3463 17.5509 16.43 17.1277 17.7968C17.0365 18.0912 16.866 18.4879 16.8815 18.8094C16.9009 19.2122 17.1336 18.0439 17.3059 17.6824C18.0123 16.2006 19.0901 15.0565 20.3954 14.1341C20.6536 13.9517 20.9853 13.6543 21.2909 13.5486C21.7404 13.3932 23.1429 13.1604 22.6701 13.1921C22.0695 13.2322 21.4309 13.5285 20.9132 13.826C20.5204 14.0516 19.5628 14.7401 20.6288 14.1562C21.3463 13.7631 22.0773 13.3932 22.7889 12.9896C22.9918 12.8745 23.106 12.9172 22.8823 12.8575C22.6186 12.7871 22.4199 12.617 22.1863 12.4833C21.8114 12.2687 21.3478 12.1814 20.9259 12.1663C20.7831 12.1612 20.3547 12.1523 20.4973 12.1619C20.9782 12.1945 21.4507 12.2652 21.9232 12.3644C22.1188 12.4055 22.7239 12.7037 22.6701 12.6814C22.2755 12.5177 21.9121 12.3049 21.503 12.1663C21.1647 12.0517 20.0919 11.9744 20.4463 12.0078C21.009 12.0609 21.444 12.289 21.9487 12.5229C22.2815 12.6772 21.5268 12.8538 21.4139 12.9103C19.7894 13.7239 18.6504 15.2593 18.0825 17.0264C17.7476 18.0688 17.9356 19.0831 17.951 20.1477C17.9641 21.0584 17.751 21.9479 17.8024 22.8551C17.8534 23.7541 18.9485 24.1702 19.5551 24.6028" stroke="#FAFFD8" stroke-linecap="round"/>
</svg>
