<svg width="40" height="39" viewBox="0 0 40 39" fill="none" xmlns="http://www.w3.org/2000/svg">
<path d="M32.6406 21.5052C33.5122 21.9957 28.391 30.2337 27.5047 31.2215C25.9398 32.966 24.7115 34.4789 22.2557 34.6404C18.6836 34.8753 15.0301 34.2692 11.552 33.3156C9.55351 32.7677 8.97827 32.4269 7.58952 30.9933C6.31176 29.6742 4.69847 27.9445 4.36235 26.0411C2.95845 18.0913 3.57764 7.44174 12.7524 4.61222C15.2104 3.85415 17.157 3.49152 19.7173 3.53221C22.1362 3.57065 24.5732 4.54727 26.8962 5.18415C30.2058 6.09148 32.6738 7.63805 34.1245 10.9027C34.8964 12.64 35.7812 14.1963 35.7878 16.1591C35.7943 18.0668 35.6305 20.0358 35.1274 21.8708C34.3489 24.7104 34.3281 28.2155 32.3477 30.5946C31.5376 31.5678 30.4148 32.2936 29.3601 32.8943C28.2777 33.511 26.9223 33.3352 25.8455 33.8136C24.966 34.2044 23.7227 34.0787 22.774 34.3226C21.9743 34.5281 23.4819 34.6339 23.7365 34.5864C24.713 34.4041 25.3216 34.2177 26.2078 33.8554C29.7713 32.3984 31.2422 29.39 32.6429 26.1625C34.3295 22.2766 33.7348 17.4637 31.9032 13.8149C31.3394 12.6919 30.9203 10.9649 29.9313 10.1555C29.4339 9.74848 29.0981 9.16083 28.563 8.80306C28.3026 8.62898 26.4181 7.38142 27.4388 7.66124C30.3085 8.448 31.1363 10.8822 32.7259 13.1207C33.6602 14.4364 33.3081 16.0468 33.762 17.4147" stroke="#241623" stroke-width="2" stroke-linecap="round"/>
<path d="M19.397 19.6011C19.1829 19.5126 19.259 19.4793 19.2223 19.2945" stroke="#241623" stroke-width="30" stroke-linecap="round"/>
<path d="M19.9313 15.5429C19.271 15.4951 18.6971 15.4282 18.0459 15.6017C17.4951 15.7485 16.9801 16.0496 16.6406 16.5298C15.8623 17.6307 15.8441 19.5307 16.6406 20.627C17.1908 21.3844 18.1394 21.8888 19.0148 22.0939C19.7886 22.2751 20.7896 22.3612 21.533 22.0033C21.9089 21.8224 22.6023 21.3604 22.6023 20.8398" stroke="#FAFFD8" stroke-width="10" stroke-linecap="round"/>
<path d="M22.3893 20.1868C21.7465 20.3327 21.1585 20.6754 20.5066 20.8248C19.6739 21.0156 18.7971 21.0004 18.0297 20.6241C17.3722 20.3016 16.9514 19.8329 16.7991 19.1305C16.6012 18.2183 16.7859 17.2701 17.4133 16.5469C17.6697 16.2514 17.1985 16.9527 17.1818 16.98C16.9776 17.3156 16.7942 17.6615 16.6477 18.0236C16.6042 18.1312 16.4435 18.4275 16.4786 18.5559C16.5135 18.6839 16.6615 18.3559 16.7412 18.2475C17.1278 17.7215 17.5151 17.1986 17.9452 16.7033C18.0587 16.5725 18.4155 16.1942 18.3079 16.3294C18.0327 16.6752 17.7341 17.005 17.4489 17.3434C17.3371 17.476 17.0245 17.8853 17.1017 17.7321C17.3437 17.2517 17.6803 16.7999 17.9785 16.3505C18.0443 16.2514 18.4633 15.701 18.0943 16.1266C17.8122 16.4518 17.5181 16.7686 17.253 17.1068C17.1954 17.1803 17.0303 17.4029 17.1017 17.3413C17.292 17.177 17.426 16.8895 17.5802 16.6969C17.7455 16.4905 17.8614 16.3606 18.0408 16.1667C18.1288 16.0717 18.1964 15.9462 18.3168 15.8921C18.3849 15.8614 18.2614 16.0256 18.2256 16.0885C18.138 16.2425 18.0673 16.3608 17.9763 16.5131C17.9212 16.6055 17.7211 16.8319 17.8272 16.7983C18.061 16.7244 18.328 16.3804 18.4948 16.2237C18.5881 16.1362 18.6747 16.0423 18.7708 15.9576C18.7829 15.9468 18.7709 15.9908 18.7619 16.004C18.5595 16.2998 18.312 16.5658 18.1032 16.8575C18.0412 16.944 17.8785 17.2143 17.9518 17.1363C18.155 16.9203 18.3163 16.6507 18.4837 16.4096C18.7969 15.9585 18.4139 16.4785 18.348 16.5723C18.0153 17.0459 17.6799 17.5228 17.3977 18.0257C17.3579 18.0967 17.2562 18.3177 17.2976 18.2475C17.4852 17.9287 17.6364 17.5891 17.8094 17.2631C17.9192 17.0561 18.1245 16.7421 17.8762 17.1913C17.5978 17.6947 17.274 18.1725 16.9771 18.6658C16.9332 18.7387 16.8244 18.9672 16.8747 18.8982C17.0445 18.6654 17.1444 18.3672 17.2753 18.1144C17.3226 18.023 17.602 17.4942 17.3799 17.9877C17.2283 18.3244 17.0648 18.6565 16.9237 18.9975C16.7672 19.3756 17.2222 18.2134 17.5112 17.9137C17.5463 17.8773 17.5338 18.014 17.5201 18.0616C17.4863 18.1793 17.3786 18.4707 17.3376 18.5813C17.2864 18.7194 17.1491 19.133 17.1596 18.9869C17.1758 18.7599 17.2647 18.5138 17.3198 18.2961C17.3629 18.126 17.5493 17.5357 17.2864 18.0764C17.1444 18.3686 17.0277 18.672 16.8859 18.9637C16.7443 19.2547 17.1104 18.3587 17.2375 18.0616C17.3075 17.8979 17.5053 17.4161 17.4978 17.5926C17.4817 17.9765 17.3034 18.3984 17.1774 18.7587C17.1211 18.9195 16.9939 19.239 17.0483 18.8432C17.0926 18.5211 17.1443 18.0869 17.3465 17.8123C17.4311 17.6975 17.4218 18.0889 17.4088 18.2285C17.3703 18.6439 17.2887 19.0524 17.2108 19.4622C17.1861 19.5918 17.1666 19.6856 17.193 19.458C17.2467 18.9934 17.3293 18.5246 17.4533 18.0722C17.5112 17.8611 17.5639 17.796 17.5557 18.0574C17.5385 18.6075 17.4572 19.159 17.391 19.7051C17.3605 19.9568 17.3236 20.2085 17.3065 20.4614C17.2998 20.5589 17.2998 20.6961 17.2798 20.4678C17.2616 20.2609 17.2182 18.2456 17.3866 18.2771C17.6552 18.3273 17.6643 19.1888 17.6759 19.3249C17.7176 19.8174 17.6976 20.3358 17.8762 20.8079C17.8945 20.8563 17.9756 20.9838 17.9719 20.9325C17.9486 20.6127 17.8304 20.2765 17.7604 19.965C17.6615 19.5243 17.5747 19.0794 17.4489 18.6447C17.4234 18.5567 17.3409 18.2961 17.3821 18.3785C17.7795 19.1727 18.076 19.995 18.7129 20.66C18.9279 20.8844 19.7235 21.4008 19.4562 21.2346C18.8387 20.8506 17.0416 19.6244 17.618 20.0622C18.1661 20.4784 18.6817 20.8138 19.3627 21.0064C20.1436 21.2273 20.9885 21.3978 21.8063 21.4036C22.0166 21.4051 22.0777 21.3606 21.853 21.2895C21.2715 21.1055 20.5585 21.2724 19.9525 21.2114C19.877 21.2038 19.1682 21.1505 19.5675 21.0825C20.2363 20.9685 20.9069 20.7773 21.5437 20.5544C21.9697 20.4052 21.2933 20.6611 21.2254 20.6832C20.8718 20.7985 19.7896 20.9859 20.1617 21.0212C20.5962 21.0625 21.0628 20.9481 21.4591 20.791C21.4606 20.7904 21.8614 20.5918 21.6638 20.6684C21.3267 20.7991 20.2954 21.1412 20.6335 21.0128C21.178 20.806 21.6965 20.4815 22.1378 20.1192C22.4331 19.8768 22.7501 19.6923 23.0836 19.5023C23.3219 19.3667 23.2335 19.8065 23.2305 19.9502C23.2071 21.0848 21.7021 21.3133 20.7603 21.3571C20.3337 21.377 19.853 21.4188 19.4562 21.2409C18.9992 21.0361 18.6163 20.7146 18.1699 20.4973C17.5794 20.2099 18.5918 20.641 18.7174 20.6938C19.2303 20.9094 19.8428 20.9398 20.3931 21.0001C20.4085 21.0018 20.7235 21.0716 20.6891 20.9473C20.678 20.9071 20.5665 20.8697 20.5444 20.8586C20.1668 20.6684 19.8091 20.439 19.4495 20.2206C18.8234 19.8403 18.1813 19.4656 17.6113 19.0101C17.3935 18.836 17.1601 18.6346 17.0528 18.3764C16.9421 18.1102 17.2503 18.3799 17.3065 18.4419C17.6943 18.8701 18.0442 19.2954 18.4993 19.6671C18.9212 20.0118 19.3777 20.3199 19.8212 20.6389C19.9125 20.7046 20.0283 20.7679 20.1105 20.8459C20.1529 20.8862 20.0979 20.9066 20.0593 20.9029C19.8362 20.8818 19.5048 20.5858 19.3538 20.4783C18.8874 20.1462 18.4227 19.7908 18.0586 19.3545C17.9759 19.2553 17.6436 18.8107 17.7916 18.6447C17.8072 18.6272 17.8294 18.675 17.8406 18.6954C17.8965 18.7977 17.9416 18.9051 17.9963 19.008C18.244 19.474 18.5398 19.9018 18.9221 20.2797C19.2194 20.5736 19.5516 20.832 19.8924 21.0783C19.955 21.1235 20.1286 21.2741 20.0771 21.2177C19.4987 20.5842 18.8334 20.0709 18.181 19.5045C18.0378 19.3801 17.8643 19.2391 17.7693 19.0714C17.6955 18.941 17.8014 19.0494 17.8361 19.101C18.2314 19.6879 18.6145 20.3129 19.0779 20.8543C19.1542 20.9435 18.9876 20.6413 18.9466 20.5332C18.7267 19.9535 18.521 19.3679 18.3569 18.7714C18.2154 18.2573 18.0919 17.7306 18.072 17.1976C18.0669 17.0614 18.0525 16.8692 18.121 16.7392C18.1356 16.7114 18.1301 16.8014 18.1254 16.8321C18.067 17.2107 18.014 17.5893 18.0097 17.9729C18.0026 18.5951 18.1118 19.2856 18.4948 19.8108C18.4969 19.8136 18.5419 19.8768 18.5149 19.8256C18.3857 19.5804 18.3162 19.2918 18.2367 19.0313C18.0812 18.5217 17.9315 18.006 17.8762 17.4765C17.8638 17.358 17.8542 17.0008 17.865 17.1194C17.9395 17.932 18.1373 18.7479 18.6061 19.4432C19.1396 20.2343 20.1142 21.1512 21.1609 21.243C21.2472 21.2506 21.5519 21.2695 21.6215 21.1923C21.7214 21.0818 21.3072 20.8905 21.2566 20.8734C20.3253 20.5576 19.3848 20.2498 18.4993 19.8234C18.2769 19.7164 18.638 19.9793 18.6951 20.0453C19.1484 20.5684 19.8079 20.8461 20.5222 20.8565C21.121 20.8651 21.5743 20.6339 22.0332 20.2966C22.2871 20.1101 22.263 20.1634 21.9754 20.2628C21.5217 20.4197 21.0437 20.5251 20.56 20.4635C20.1771 20.4148 19.8267 20.244 19.4495 20.1889C19.0169 20.1257 18.6453 19.7578 18.3502 19.4643C17.471 18.59 17.8263 17.1341 18.664 16.3505C18.8237 16.2011 18.9935 16.0777 19.207 16.0209C19.2836 16.0006 19.3565 15.9761 19.4362 15.9681C19.5584 15.9559 19.2556 16.1265 19.1625 16.2026C18.6063 16.6575 18.294 17.1776 18.072 17.8335C18.0242 17.9747 17.9348 18.1651 17.9429 18.3193C17.9531 18.5126 18.0751 17.952 18.1655 17.7785C18.5359 17.0675 19.1011 16.5185 19.7856 16.0759C19.921 15.9883 20.0949 15.8456 20.2551 15.7949C20.4908 15.7203 21.2263 15.6086 20.9784 15.6238C20.6635 15.6431 20.3286 15.7852 20.0571 15.928C19.8511 16.0363 19.349 16.3666 19.908 16.0864C20.2842 15.8978 20.6676 15.7203 21.0407 15.5266C21.1471 15.4714 21.207 15.4919 21.0897 15.4632C20.9514 15.4295 20.8472 15.3478 20.7247 15.2837C20.5281 15.1807 20.285 15.1388 20.0637 15.1316C19.9889 15.1291 19.7642 15.1248 19.839 15.1295C20.0912 15.1451 20.339 15.179 20.5867 15.2266C20.6893 15.2463 21.0066 15.3895 20.9784 15.3787C20.7715 15.3002 20.5809 15.1981 20.3664 15.1316C20.189 15.0766 19.6264 15.0395 19.8123 15.0555C20.1073 15.081 20.3354 15.1904 20.6001 15.3027C20.7746 15.3767 20.3789 15.4615 20.3197 15.4886C19.4678 15.879 18.8705 16.6158 18.5727 17.4638C18.3971 17.964 18.4957 18.4507 18.5037 18.9615C18.5106 19.3986 18.3989 19.8254 18.4258 20.2607C18.4526 20.6922 19.0268 20.8918 19.3449 21.0994" stroke="#FAFFD8" stroke-width="10" stroke-linecap="round"/>
<path d="M22.3893 20.1868C21.7465 20.3327 21.1585 20.6754 20.5066 20.8248C19.6739 21.0156 18.7971 21.0004 18.0297 20.6241C17.3722 20.3016 16.9514 19.8329 16.7991 19.1305C16.6012 18.2183 16.7859 17.2701 17.4133 16.5469C17.6697 16.2514 17.1985 16.9527 17.1818 16.98C16.9776 17.3156 16.7942 17.6615 16.6477 18.0236C16.6042 18.1312 16.4435 18.4275 16.4786 18.5559C16.5135 18.6839 16.6615 18.3559 16.7412 18.2475C17.1278 17.7215 17.5151 17.1986 17.9452 16.7033C18.0587 16.5725 18.4155 16.1942 18.3079 16.3294C18.0327 16.6752 17.7341 17.005 17.4489 17.3434C17.3371 17.476 17.0245 17.8853 17.1017 17.7321C17.3437 17.2517 17.6803 16.7999 17.9785 16.3505C18.0443 16.2514 18.4633 15.701 18.0943 16.1266C17.8122 16.4518 17.5181 16.7686 17.253 17.1068C17.1954 17.1803 17.0303 17.4029 17.1017 17.3413C17.292 17.177 17.426 16.8895 17.5802 16.6969C17.7455 16.4905 17.8614 16.3606 18.0408 16.1667C18.1288 16.0717 18.1964 15.9462 18.3168 15.8921C18.3849 15.8614 18.2614 16.0256 18.2256 16.0885C18.138 16.2425 18.0673 16.3608 17.9763 16.5131C17.9212 16.6055 17.7211 16.8319 17.8272 16.7983C18.061 16.7244 18.328 16.3804 18.4948 16.2237C18.5881 16.1362 18.6747 16.0423 18.7708 15.9576C18.7829 15.9468 18.7709 15.9908 18.7619 16.004C18.5595 16.2998 18.312 16.5658 18.1032 16.8575C18.0412 16.944 17.8785 17.2143 17.9518 17.1363C18.155 16.9203 18.3163 16.6507 18.4837 16.4096C18.7969 15.9585 18.4139 16.4785 18.348 16.5723C18.0153 17.0459 17.6799 17.5228 17.3977 18.0257C17.3579 18.0967 17.2562 18.3177 17.2976 18.2475C17.4852 17.9287 17.6364 17.5891 17.8094 17.2631C17.9192 17.0561 18.1245 16.7421 17.8762 17.1913C17.5978 17.6947 17.274 18.1725 16.9771 18.6658C16.9332 18.7387 16.8244 18.9672 16.8747 18.8982C17.0445 18.6654 17.1444 18.3672 17.2753 18.1144C17.3226 18.023 17.602 17.4942 17.3799 17.9877C17.2283 18.3244 17.0648 18.6565 16.9237 18.9975C16.7672 19.3756 17.2222 18.2134 17.5112 17.9137C17.5463 17.8773 17.5338 18.014 17.5201 18.0616C17.4863 18.1793 17.3786 18.4707 17.3376 18.5813C17.2864 18.7194 17.1491 19.133 17.1596 18.9869C17.1758 18.7599 17.2647 18.5138 17.3198 18.2961C17.3629 18.126 17.5493 17.5357 17.2864 18.0764C17.1444 18.3686 17.0277 18.672 16.8859 18.9637C16.7443 19.2547 17.1104 18.3587 17.2375 18.0616C17.3075 17.8979 17.5053 17.4161 17.4978 17.5926C17.4817 17.9765 17.3034 18.3984 17.1774 18.7587C17.1211 18.9195 16.9939 19.239 17.0483 18.8432C17.0926 18.5211 17.1443 18.0869 17.3465 17.8123C17.4311 17.6975 17.4218 18.0889 17.4088 18.2285C17.3703 18.6439 17.2887 19.0524 17.2108 19.4622C17.1861 19.5918 17.1666 19.6856 17.193 19.458C17.2467 18.9934 17.3293 18.5246 17.4533 18.0722C17.5112 17.8611 17.5639 17.796 17.5557 18.0574C17.5385 18.6075 17.4572 19.159 17.391 19.7051C17.3605 19.9568 17.3236 20.2085 17.3065 20.4614C17.2998 20.5589 17.2998 20.6961 17.2798 20.4678C17.2616 20.2609 17.2182 18.2456 17.3866 18.2771C17.6552 18.3273 17.6643 19.1888 17.6759 19.3249C17.7176 19.8174 17.6976 20.3358 17.8762 20.8079C17.8945 20.8563 17.9756 20.9838 17.9719 20.9325C17.9486 20.6127 17.8304 20.2765 17.7604 19.965C17.6615 19.5243 17.5747 19.0794 17.4489 18.6447C17.4234 18.5567 17.3409 18.2961 17.3821 18.3785C17.7795 19.1727 18.076 19.995 18.7129 20.66C18.9279 20.8844 19.7235 21.4008 19.4562 21.2346C18.8387 20.8506 17.0416 19.6244 17.618 20.0622C18.1661 20.4784 18.6817 20.8138 19.3627 21.0064C20.1436 21.2273 20.9885 21.3978 21.8063 21.4036C22.0166 21.4051 22.0777 21.3606 21.853 21.2895C21.2715 21.1055 20.5585 21.2724 19.9525 21.2114C19.877 21.2038 19.1682 21.1505 19.5675 21.0825C20.2363 20.9685 20.9069 20.7773 21.5437 20.5544C21.9697 20.4052 21.2933 20.6611 21.2254 20.6832C20.8718 20.7985 19.7896 20.9859 20.1617 21.0212C20.5962 21.0625 21.0628 20.9481 21.4591 20.791C21.4606 20.7904 21.8614 20.5918 21.6638 20.6684C21.3267 20.7991 20.2954 21.1412 20.6335 21.0128C21.178 20.806 21.6965 20.4815 22.1378 20.1192C22.4331 19.8768 22.7501 19.6923 23.0836 19.5023C23.3219 19.3667 23.2335 19.8065 23.2305 19.9502C23.2071 21.0848 21.7021 21.3133 20.7603 21.3571C20.3337 21.377 19.853 21.4188 19.4562 21.2409C18.9992 21.0361 18.6163 20.7146 18.1699 20.4973C17.5794 20.2099 18.5918 20.641 18.7174 20.6938C19.2303 20.9094 19.8428 20.9398 20.3931 21.0001C20.4085 21.0018 20.7235 21.0716 20.6891 20.9473C20.678 20.9071 20.5665 20.8697 20.5444 20.8586C20.1668 20.6684 19.8091 20.439 19.4495 20.2206C18.8234 19.8403 18.1813 19.4656 17.6113 19.0101C17.3935 18.836 17.1601 18.6346 17.0528 18.3764C16.9421 18.1102 17.2503 18.3799 17.3065 18.4419C17.6943 18.8701 18.0442 19.2954 18.4993 19.6671C18.9212 20.0118 19.3777 20.3199 19.8212 20.6389C19.9125 20.7046 20.0283 20.7679 20.1105 20.8459C20.1529 20.8862 20.0979 20.9066 20.0593 20.9029C19.8362 20.8818 19.5048 20.5858 19.3538 20.4783C18.8874 20.1462 18.4227 19.7908 18.0586 19.3545C17.9759 19.2553 17.6436 18.8107 17.7916 18.6447C17.8072 18.6272 17.8294 18.675 17.8406 18.6954C17.8965 18.7977 17.9416 18.9051 17.9963 19.008C18.244 19.474 18.5398 19.9018 18.9221 20.2797C19.2194 20.5736 19.5516 20.832 19.8924 21.0783C19.955 21.1235 20.1286 21.2741 20.0771 21.2177C19.4987 20.5842 18.8334 20.0709 18.181 19.5045C18.0378 19.3801 17.8643 19.2391 17.7693 19.0714C17.6955 18.941 17.8014 19.0494 17.8361 19.101C18.2314 19.6879 18.6145 20.3129 19.0779 20.8543C19.1542 20.9435 18.9876 20.6413 18.9466 20.5332C18.7267 19.9535 18.521 19.3679 18.3569 18.7714C18.2154 18.2573 18.0919 17.7306 18.072 17.1976C18.0669 17.0614 18.0525 16.8692 18.121 16.7392C18.1356 16.7114 18.1301 16.8014 18.1254 16.8321C18.067 17.2107 18.014 17.5893 18.0097 17.9729C18.0026 18.5951 18.1118 19.2856 18.4948 19.8108C18.4969 19.8136 18.5419 19.8768 18.5149 19.8256C18.3857 19.5804 18.3162 19.2918 18.2367 19.0313C18.0812 18.5217 17.9315 18.006 17.8762 17.4765C17.8638 17.358 17.8542 17.0008 17.865 17.1194C17.9395 17.932 18.1373 18.7479 18.6061 19.4432C19.1396 20.2343 20.1142 21.1512 21.1609 21.243C21.2472 21.2506 21.5519 21.2695 21.6215 21.1923C21.7214 21.0818 21.3072 20.8905 21.2566 20.8734C20.3253 20.5576 19.3848 20.2498 18.4993 19.8234C18.2769 19.7164 18.638 19.9793 18.6951 20.0453C19.1484 20.5684 19.8079 20.8461 20.5222 20.8565C21.121 20.8651 21.5743 20.6339 22.0332 20.2966C22.2871 20.1101 22.263 20.1634 21.9754 20.2628C21.5217 20.4197 21.0437 20.5251 20.56 20.4635C20.1771 20.4148 19.8267 20.244 19.4495 20.1889C19.0169 20.1257 18.6453 19.7578 18.3502 19.4643C17.471 18.59 17.8263 17.1341 18.664 16.3505C18.8237 16.2011 18.9935 16.0777 19.207 16.0209C19.2836 16.0006 19.3565 15.9761 19.4362 15.9681C19.5584 15.9559 19.2556 16.1265 19.1625 16.2026C18.6063 16.6575 18.294 17.1776 18.072 17.8335C18.0242 17.9747 17.9348 18.1651 17.9429 18.3193C17.9531 18.5126 18.0751 17.952 18.1655 17.7785C18.5359 17.0675 19.1011 16.5185 19.7856 16.0759C19.921 15.9883 20.0949 15.8456 20.2551 15.7949C20.4908 15.7203 21.2263 15.6086 20.9784 15.6238C20.6635 15.6431 20.3286 15.7852 20.0571 15.928C19.8511 16.0363 19.349 16.3666 19.908 16.0864C20.2842 15.8978 20.6676 15.7203 21.0407 15.5266C21.1471 15.4714 21.207 15.4919 21.0897 15.4632C20.9514 15.4295 20.8472 15.3478 20.7247 15.2837C20.5281 15.1807 20.285 15.1388 20.0637 15.1316C19.9889 15.1291 19.7642 15.1248 19.839 15.1295C20.0912 15.1451 20.339 15.179 20.5867 15.2266C20.6893 15.2463 21.0066 15.3895 20.9784 15.3787C20.7715 15.3002 20.5809 15.1981 20.3664 15.1316C20.189 15.0766 19.6264 15.0395 19.8123 15.0555C20.1073 15.081 20.3354 15.1904 20.6001 15.3027C20.7746 15.3767 20.3789 15.4615 20.3197 15.4886C19.4678 15.879 18.8705 16.6158 18.5727 17.4638C18.3971 17.964 18.4957 18.4507 18.5037 18.9615C18.5106 19.3986 18.3989 19.8254 18.4258 20.2607C18.4526 20.6922 19.0268 20.8918 19.3449 21.0994" stroke="#FAFFD8" stroke-width="10" stroke-linecap="round"/>
<path d="M21.0069 21.5314C21.6026 21.2427 22.1332 21.0136 22.6103 20.5377C23.0139 20.1352 23.3094 19.617 23.3633 19.0313C23.4869 17.6888 22.5526 16.0342 21.3147 15.483C20.4596 15.1023 19.3858 15.1397 18.5252 15.3998C17.7644 15.6298 16.8545 16.0557 16.3896 16.7373C16.1546 17.082 15.785 17.8288 16.0453 18.2796" stroke="#FAFFD8" stroke-width="10" stroke-linecap="round"/>
<path d="M16.5562 18.7378C17.0399 18.29 17.3778 17.6993 17.8677 17.244C18.4934 16.6624 19.2603 16.2371 20.1131 16.1793C20.8437 16.1298 21.4425 16.3253 21.9256 16.8574C22.553 17.5485 22.8672 18.4621 22.6855 19.402C22.6112 19.7862 22.6686 18.9432 22.6694 18.9112C22.6784 18.5185 22.6644 18.1273 22.6101 17.7404C22.594 17.6254 22.585 17.2885 22.4904 17.1948C22.3962 17.1015 22.432 17.4595 22.4172 17.5932C22.3454 18.242 22.2715 18.8886 22.1467 19.5326C22.1137 19.7025 21.9939 20.2086 22.0195 20.0377C22.085 19.6006 22.1787 19.1657 22.2564 18.7301C22.2869 18.5593 22.353 18.0486 22.3627 18.2199C22.3933 18.7569 22.3277 19.3165 22.2942 19.8548C22.2868 19.9734 22.1991 20.6596 22.3059 20.1066C22.3876 19.6839 22.4839 19.2625 22.5443 18.8371C22.5575 18.7446 22.5892 18.4692 22.5581 18.5583C22.4754 18.7957 22.5032 19.1117 22.4659 19.3556C22.426 19.617 22.3906 19.7875 22.3321 20.0451C22.3035 20.1714 22.3077 20.3138 22.2304 20.4209C22.1868 20.4815 22.2117 20.2776 22.2112 20.2051C22.2101 20.028 22.2122 19.8902 22.2148 19.7128C22.2163 19.6053 22.2764 19.3092 22.2013 19.3913C22.0358 19.5722 21.9766 20.0036 21.9104 20.2227C21.8734 20.3451 21.8453 20.4697 21.8045 20.5912C21.7994 20.6065 21.7878 20.5624 21.789 20.5465C21.8164 20.1891 21.8977 19.835 21.9328 19.478C21.9431 19.3722 21.9489 19.0566 21.9244 19.1608C21.8564 19.4495 21.8515 19.7637 21.8271 20.0561C21.7814 20.6034 21.8532 19.9616 21.8633 19.8474C21.9146 19.2709 21.9666 18.6902 21.9596 18.1136C21.9586 18.0322 21.9361 17.7899 21.9354 17.8714C21.9323 18.2413 21.9712 18.611 21.9844 18.9799C21.9927 19.214 21.9719 19.5886 21.9624 19.0754C21.9518 18.5002 21.9933 17.9246 22.0038 17.3489C22.0054 17.2639 21.9854 17.0116 21.9763 17.0965C21.9456 17.383 22.0082 17.6911 22.0212 17.9755C22.0259 18.0784 22.0484 18.6761 21.994 18.1376C21.9569 17.7702 21.9325 17.4008 21.8842 17.035C21.8307 16.6293 22.0177 17.8633 21.9173 18.2673C21.9051 18.3164 21.8476 18.1918 21.8356 18.1437C21.8061 18.0248 21.7536 17.7186 21.7338 17.6024C21.7091 17.4571 21.6212 17.0303 21.6852 17.1621C21.7847 17.3668 21.8307 17.6243 21.8918 17.8405C21.9396 18.0093 22.0733 18.6138 22.0306 18.014C22.0075 17.69 21.9569 17.3689 21.9339 17.0454C21.9109 16.7225 22.0419 17.6816 22.0804 18.0024C22.1016 18.1792 22.1712 18.6953 22.0894 18.5387C21.9115 18.1981 21.8549 17.7437 21.7839 17.3686C21.7522 17.2012 21.7026 16.8609 21.8534 17.2309C21.9761 17.532 22.1484 17.9339 22.1106 18.2728C22.0948 18.4145 21.9071 18.0709 21.8486 17.9435C21.6742 17.5645 21.5406 17.1699 21.4032 16.7761C21.3598 16.6515 21.3298 16.5605 21.4208 16.7708C21.6065 17.2 21.7693 17.6473 21.8882 18.1011C21.9436 18.3129 21.9305 18.3956 21.8069 18.1651C21.5467 17.6801 21.3414 17.1619 21.1257 16.6558C21.0262 16.4226 20.9323 16.1862 20.8207 15.9586C20.7778 15.8708 20.7092 15.752 20.8407 15.9397C20.9599 16.1098 22.0051 17.8333 21.8435 17.8903C21.5858 17.9812 21.1471 17.2396 21.0691 17.1275C20.7867 16.7219 20.5448 16.263 20.1541 15.9434C20.1141 15.9106 19.9801 15.8407 20.009 15.8833C20.189 16.1486 20.4595 16.3807 20.6758 16.6155C20.9818 16.9476 21.2794 17.2895 21.6058 17.6031C21.6718 17.6666 21.8736 17.851 21.7967 17.8003C21.0554 17.3112 20.3875 16.7473 19.5034 16.4898C19.2051 16.4029 18.2578 16.3535 18.5724 16.3638C19.2992 16.3877 21.4686 16.551 20.7506 16.4601C20.0678 16.3737 19.4536 16.341 18.7674 16.5147C17.9808 16.7138 17.1638 16.9886 16.4527 17.3925C16.2698 17.4964 16.2391 17.5654 16.4693 17.5147C17.0649 17.3833 17.5989 16.8822 18.1543 16.6321C18.2234 16.601 18.8639 16.2927 18.5521 16.5512C18.0299 16.9843 17.5447 17.4852 17.1048 17.9967C16.8104 18.3389 17.2682 17.7791 17.3159 17.7259C17.5645 17.4493 18.408 16.7459 18.0682 16.9013C17.6712 17.0829 17.3243 17.4153 17.0597 17.7495C17.0586 17.7508 16.8108 18.1231 16.9436 17.958C17.1702 17.6762 17.8924 16.8644 17.6638 17.1446C17.2956 17.5959 17.0088 18.1361 16.8078 18.6706C16.6733 19.0281 16.4909 19.3465 16.2971 19.6777C16.1586 19.9143 16.0153 19.4893 15.946 19.3633C15.3989 18.369 16.5881 17.4186 17.3818 16.9098C17.7413 16.6793 18.1367 16.4027 18.5693 16.3584C19.0674 16.3073 19.5598 16.3942 20.055 16.3592C20.7102 16.3129 19.6178 16.4457 19.4827 16.4628C18.9307 16.5325 18.385 16.8124 17.8783 17.0354C17.8641 17.0416 17.5564 17.1387 17.6484 17.2291C17.6781 17.2583 17.7933 17.235 17.818 17.2336C18.2401 17.2095 18.6646 17.2293 19.0852 17.2387C19.8176 17.2549 20.561 17.2584 21.2824 17.3679C21.5581 17.4097 21.8609 17.4675 22.083 17.6374C22.3119 17.8126 21.9101 17.7332 21.8305 17.7075C21.2806 17.5306 20.7649 17.3373 20.1849 17.2429C19.6471 17.1553 19.0978 17.1168 18.5542 17.0622C18.4423 17.051 18.3103 17.0541 18.2002 17.0276C18.1433 17.0139 18.1807 16.9687 18.216 16.9526C18.4198 16.8594 18.8548 16.95 19.0392 16.9676C19.6092 17.022 20.1894 17.0975 20.7228 17.2933C20.8441 17.3378 21.3541 17.5567 21.309 17.7745C21.3042 17.7974 21.261 17.7671 21.2412 17.7551C21.1416 17.6944 21.0488 17.624 20.95 17.5622C20.5025 17.2825 20.0325 17.0599 19.5124 16.9237C19.108 16.8178 18.6911 16.7602 18.2728 16.7173C18.196 16.7094 17.9703 16.6658 18.0432 16.6889C18.8608 16.9484 19.6936 17.0602 20.5418 17.2246C20.7281 17.2607 20.9488 17.296 21.1149 17.3938C21.244 17.4698 21.0982 17.4289 21.0423 17.4016C20.4065 17.0909 19.7622 16.7412 19.0902 16.504C18.9796 16.465 19.2749 16.6434 19.3644 16.7164C19.8448 17.1086 20.3157 17.5129 20.7561 17.9473C21.1357 18.3218 21.506 18.7163 21.7897 19.1679C21.8622 19.2833 21.9708 19.4426 21.9765 19.5894C21.9777 19.6207 21.9374 19.54 21.9262 19.5111C21.7875 19.154 21.644 18.7997 21.456 18.4653C21.151 17.9229 20.7112 17.3795 20.1169 17.1162C20.1137 17.1148 20.0432 17.0825 20.0922 17.1134C20.3266 17.2612 20.5311 17.4763 20.7302 17.6622C21.1197 18.0258 21.5071 18.3975 21.8199 18.8285C21.8898 18.9249 22.0767 19.2294 22.008 19.1321C21.5373 18.4656 20.958 17.8579 20.2043 17.4902C19.3468 17.0718 18.0443 16.765 17.0919 17.2089C17.0133 17.2455 16.7401 17.3815 16.7183 17.4831C16.6871 17.6288 17.1415 17.5873 17.1939 17.5769C18.1583 17.3846 19.1267 17.181 20.1067 17.1075C20.3528 17.089 19.9086 17.0418 19.8262 17.0133C19.1721 16.7869 18.4621 16.8761 17.8383 17.2243C17.3154 17.5162 17.0384 17.9431 16.8096 18.4647C16.6831 18.7531 16.6773 18.6949 16.8766 18.465C17.1911 18.1023 17.5524 17.7721 18.002 17.5835C18.358 17.4342 18.7468 17.407 19.101 17.2661C19.5073 17.1045 20.0131 17.2373 20.4154 17.3439C21.614 17.6615 22.0342 19.1 21.7006 20.1975C21.637 20.4067 21.5516 20.5985 21.3951 20.7544C21.3389 20.8104 21.2881 20.868 21.223 20.9147C21.1233 20.9864 21.3003 20.6873 21.3428 20.5748C21.597 19.9027 21.6075 19.2962 21.4717 18.6172C21.4425 18.471 21.4248 18.2614 21.3406 18.1319C21.2351 17.9696 21.4098 18.5161 21.4183 18.7115C21.453 19.5125 21.2381 20.2706 20.8666 20.9961C20.7931 21.1396 20.7138 21.3502 20.6004 21.4742C20.4335 21.6567 19.8524 22.1212 20.0596 21.984C20.3227 21.8099 20.5416 21.5193 20.7054 21.2599C20.8296 21.0632 21.0993 20.526 20.7553 21.0482C20.5237 21.3996 20.2805 21.745 20.0542 22.0994C19.9897 22.2004 19.9276 22.2126 20.0435 22.1787C20.1801 22.1388 20.3112 22.1574 20.4493 22.1517C20.6711 22.1426 20.9026 22.0573 21.0978 21.953C21.1639 21.9177 21.3606 21.8091 21.2935 21.8424C21.0673 21.955 20.8357 22.0495 20.5973 22.1321C20.4987 22.1664 20.1523 22.2011 20.1821 22.1963C20.4006 22.1608 20.6167 22.154 20.8357 22.1043C21.0168 22.0632 21.5226 21.8141 21.3536 21.8931C21.0853 22.0186 20.8331 22.0378 20.5478 22.073C20.3596 22.0961 20.6599 21.8249 20.6976 21.7718C21.2402 21.0077 21.3891 20.071 21.223 19.1877C21.125 18.6667 20.7962 18.2945 20.5338 17.8561C20.3094 17.4811 20.1927 17.0556 19.9517 16.6921C19.7128 16.3318 19.1157 16.446 18.7364 16.4253" stroke="#FAFFD8" stroke-width="10" stroke-linecap="round"/>
<path d="M16.5562 18.7378C17.0399 18.29 17.3778 17.6993 17.8677 17.244C18.4934 16.6624 19.2603 16.2371 20.1131 16.1793C20.8437 16.1298 21.4425 16.3253 21.9256 16.8574C22.553 17.5485 22.8672 18.4621 22.6855 19.402C22.6112 19.7862 22.6686 18.9432 22.6694 18.9112C22.6784 18.5185 22.6644 18.1273 22.6101 17.7404C22.594 17.6254 22.585 17.2885 22.4904 17.1948C22.3962 17.1015 22.432 17.4595 22.4172 17.5932C22.3454 18.242 22.2715 18.8886 22.1467 19.5326C22.1137 19.7025 21.9939 20.2086 22.0195 20.0377C22.085 19.6006 22.1787 19.1657 22.2564 18.7301C22.2869 18.5593 22.353 18.0486 22.3627 18.2199C22.3933 18.7569 22.3277 19.3165 22.2942 19.8548C22.2868 19.9734 22.1991 20.6596 22.3059 20.1066C22.3876 19.6839 22.4839 19.2625 22.5443 18.8371C22.5575 18.7446 22.5892 18.4692 22.5581 18.5583C22.4754 18.7957 22.5032 19.1117 22.4659 19.3556C22.426 19.617 22.3906 19.7875 22.3321 20.0451C22.3035 20.1714 22.3077 20.3138 22.2304 20.4209C22.1868 20.4815 22.2117 20.2776 22.2112 20.2051C22.2101 20.028 22.2122 19.8902 22.2148 19.7128C22.2163 19.6053 22.2764 19.3092 22.2013 19.3913C22.0358 19.5722 21.9766 20.0036 21.9104 20.2227C21.8734 20.3451 21.8453 20.4697 21.8045 20.5912C21.7994 20.6065 21.7878 20.5624 21.789 20.5465C21.8164 20.1891 21.8977 19.835 21.9328 19.478C21.9431 19.3722 21.9489 19.0566 21.9244 19.1608C21.8564 19.4495 21.8515 19.7637 21.8271 20.0561C21.7814 20.6034 21.8532 19.9616 21.8633 19.8474C21.9146 19.2709 21.9666 18.6902 21.9596 18.1136C21.9586 18.0322 21.9361 17.7899 21.9354 17.8714C21.9323 18.2413 21.9712 18.611 21.9844 18.9799C21.9927 19.214 21.9719 19.5886 21.9624 19.0754C21.9518 18.5002 21.9933 17.9246 22.0038 17.3489C22.0054 17.2639 21.9854 17.0116 21.9763 17.0965C21.9456 17.383 22.0082 17.6911 22.0212 17.9755C22.0259 18.0784 22.0484 18.6761 21.994 18.1376C21.9569 17.7702 21.9325 17.4008 21.8842 17.035C21.8307 16.6293 22.0177 17.8633 21.9173 18.2673C21.9051 18.3164 21.8476 18.1918 21.8356 18.1437C21.8061 18.0248 21.7536 17.7186 21.7338 17.6024C21.7091 17.4571 21.6212 17.0303 21.6852 17.1621C21.7847 17.3668 21.8307 17.6243 21.8918 17.8405C21.9396 18.0093 22.0733 18.6138 22.0306 18.014C22.0075 17.69 21.9569 17.3689 21.9339 17.0454C21.9109 16.7225 22.0419 17.6816 22.0804 18.0024C22.1016 18.1792 22.1712 18.6953 22.0894 18.5387C21.9115 18.1981 21.8549 17.7437 21.7839 17.3686C21.7522 17.2012 21.7026 16.8609 21.8534 17.2309C21.9761 17.532 22.1484 17.9339 22.1106 18.2728C22.0948 18.4145 21.9071 18.0709 21.8486 17.9435C21.6742 17.5645 21.5406 17.1699 21.4032 16.7761C21.3598 16.6515 21.3298 16.5605 21.4208 16.7708C21.6065 17.2 21.7693 17.6473 21.8882 18.1011C21.9436 18.3129 21.9305 18.3956 21.8069 18.1651C21.5467 17.6801 21.3414 17.1619 21.1257 16.6558C21.0262 16.4226 20.9323 16.1862 20.8207 15.9586C20.7778 15.8708 20.7092 15.752 20.8407 15.9397C20.9599 16.1098 22.0051 17.8333 21.8435 17.8903C21.5858 17.9812 21.1471 17.2396 21.0691 17.1275C20.7867 16.7219 20.5448 16.263 20.1541 15.9434C20.1141 15.9106 19.9801 15.8407 20.009 15.8833C20.189 16.1486 20.4595 16.3807 20.6758 16.6155C20.9818 16.9476 21.2794 17.2895 21.6058 17.6031C21.6718 17.6666 21.8736 17.851 21.7967 17.8003C21.0554 17.3112 20.3875 16.7473 19.5034 16.4898C19.2051 16.4029 18.2578 16.3535 18.5724 16.3638C19.2992 16.3877 21.4686 16.551 20.7506 16.4601C20.0678 16.3737 19.4536 16.341 18.7674 16.5147C17.9808 16.7138 17.1638 16.9886 16.4527 17.3925C16.2698 17.4964 16.2391 17.5654 16.4693 17.5147C17.0649 17.3833 17.5989 16.8822 18.1543 16.6321C18.2234 16.601 18.8639 16.2927 18.5521 16.5512C18.0299 16.9843 17.5447 17.4852 17.1048 17.9967C16.8104 18.3389 17.2682 17.7791 17.3159 17.7259C17.5645 17.4493 18.408 16.7459 18.0682 16.9013C17.6712 17.0829 17.3243 17.4153 17.0597 17.7495C17.0586 17.7508 16.8108 18.1231 16.9436 17.958C17.1702 17.6762 17.8924 16.8644 17.6638 17.1446C17.2956 17.5959 17.0088 18.1361 16.8078 18.6706C16.6733 19.0281 16.4909 19.3465 16.2971 19.6777C16.1586 19.9143 16.0153 19.4893 15.946 19.3633C15.3989 18.369 16.5881 17.4186 17.3818 16.9098C17.7413 16.6793 18.1367 16.4027 18.5693 16.3584C19.0674 16.3073 19.5598 16.3942 20.055 16.3592C20.7102 16.3129 19.6178 16.4457 19.4827 16.4628C18.9307 16.5325 18.385 16.8124 17.8783 17.0354C17.8641 17.0416 17.5564 17.1387 17.6484 17.2291C17.6781 17.2583 17.7933 17.235 17.818 17.2336C18.2401 17.2095 18.6646 17.2293 19.0852 17.2387C19.8176 17.2549 20.561 17.2584 21.2824 17.3679C21.5581 17.4097 21.8609 17.4675 22.083 17.6374C22.3119 17.8126 21.9101 17.7332 21.8305 17.7075C21.2806 17.5306 20.7649 17.3373 20.1849 17.2429C19.6471 17.1553 19.0978 17.1168 18.5542 17.0622C18.4423 17.051 18.3103 17.0541 18.2002 17.0276C18.1433 17.0139 18.1807 16.9687 18.216 16.9526C18.4198 16.8594 18.8548 16.95 19.0392 16.9676C19.6092 17.022 20.1894 17.0975 20.7228 17.2933C20.8441 17.3378 21.3541 17.5567 21.309 17.7745C21.3042 17.7974 21.261 17.7671 21.2412 17.7551C21.1416 17.6944 21.0488 17.624 20.95 17.5622C20.5025 17.2825 20.0325 17.0599 19.5124 16.9237C19.108 16.8178 18.6911 16.7602 18.2728 16.7173C18.196 16.7094 17.9703 16.6658 18.0432 16.6889C18.8608 16.9484 19.6936 17.0602 20.5418 17.2246C20.7281 17.2607 20.9488 17.296 21.1149 17.3938C21.244 17.4698 21.0982 17.4289 21.0423 17.4016C20.4065 17.0909 19.7622 16.7412 19.0902 16.504C18.9796 16.465 19.2749 16.6434 19.3644 16.7164C19.8448 17.1086 20.3157 17.5129 20.7561 17.9473C21.1357 18.3218 21.506 18.7163 21.7897 19.1679C21.8622 19.2833 21.9708 19.4426 21.9765 19.5894C21.9777 19.6207 21.9374 19.54 21.9262 19.5111C21.7875 19.154 21.644 18.7997 21.456 18.4653C21.151 17.9229 20.7112 17.3795 20.1169 17.1162C20.1137 17.1148 20.0432 17.0825 20.0922 17.1134C20.3266 17.2612 20.5311 17.4763 20.7302 17.6622C21.1197 18.0258 21.5071 18.3975 21.8199 18.8285C21.8898 18.9249 22.0767 19.2294 22.008 19.1321C21.5373 18.4656 20.958 17.8579 20.2043 17.4902C19.3468 17.0718 18.0443 16.765 17.0919 17.2089C17.0133 17.2455 16.7401 17.3815 16.7183 17.4831C16.6871 17.6288 17.1415 17.5873 17.1939 17.5769C18.1583 17.3846 19.1267 17.181 20.1067 17.1075C20.3528 17.089 19.9086 17.0418 19.8262 17.0133C19.1721 16.7869 18.4621 16.8761 17.8383 17.2243C17.3154 17.5162 17.0384 17.9431 16.8096 18.4647C16.6831 18.7531 16.6773 18.6949 16.8766 18.465C17.1911 18.1023 17.5524 17.7721 18.002 17.5835C18.358 17.4342 18.7468 17.407 19.101 17.2661C19.5073 17.1045 20.0131 17.2373 20.4154 17.3439C21.614 17.6615 22.0342 19.1 21.7006 20.1975C21.637 20.4067 21.5516 20.5985 21.3951 20.7544C21.3389 20.8104 21.2881 20.868 21.223 20.9147C21.1233 20.9864 21.3003 20.6873 21.3428 20.5748C21.597 19.9027 21.6075 19.2962 21.4717 18.6172C21.4425 18.471 21.4248 18.2614 21.3406 18.1319C21.2351 17.9696 21.4098 18.5161 21.4183 18.7115C21.453 19.5125 21.2381 20.2706 20.8666 20.9961C20.7931 21.1396 20.7138 21.3502 20.6004 21.4742C20.4335 21.6567 19.8524 22.1212 20.0596 21.984C20.3227 21.8099 20.5416 21.5193 20.7054 21.2599C20.8296 21.0632 21.0993 20.526 20.7553 21.0482C20.5237 21.3996 20.2805 21.745 20.0542 22.0994C19.9897 22.2004 19.9276 22.2126 20.0435 22.1787C20.1801 22.1388 20.3112 22.1574 20.4493 22.1517C20.6711 22.1426 20.9026 22.0573 21.0978 21.953C21.1639 21.9177 21.3606 21.8091 21.2935 21.8424C21.0673 21.955 20.8357 22.0495 20.5973 22.1321C20.4987 22.1664 20.1523 22.2011 20.1821 22.1963C20.4006 22.1608 20.6167 22.154 20.8357 22.1043C21.0168 22.0632 21.5226 21.8141 21.3536 21.8931C21.0853 22.0186 20.8331 22.0378 20.5478 22.073C20.3596 22.0961 20.6599 21.8249 20.6976 21.7718C21.2402 21.0077 21.3891 20.071 21.223 19.1877C21.125 18.6667 20.7962 18.2945 20.5338 17.8561C20.3094 17.4811 20.1927 17.0556 19.9517 16.6921C19.7128 16.3318 19.1157 16.446 18.7364 16.4253" stroke="#FAFFD8" stroke-width="10" stroke-linecap="round"/>
<path d="M23.4642 11.3857C23.3819 11.7424 23.1126 12.0484 23.0126 12.4058C22.9733 12.5462 23.0329 12.7927 22.9036 12.8574" stroke="#FAFFD8" stroke-linecap="round"/>
<path d="M10.78 15.9414C12.4703 16.5688 14.1525 17.1667 15.8958 17.6233" stroke="#FAFFD8" stroke-linecap="round"/>
<path d="M16.176 10.8252C16.6732 12.2096 17.2283 13.5617 17.7684 14.9287C17.9175 15.3063 18.0358 15.8277 18.2784 16.1512" stroke="#FAFFD8" stroke-linecap="round"/>
<path d="M13.0225 25.4017C13.6359 24.0214 14.641 22.7987 15.4752 21.5474" stroke="#FAFFD8" stroke-linecap="round"/>
<path d="M23.3944 27.434C22.555 26.3509 21.9517 25.0484 21.2336 23.8834C20.7155 23.0428 20.1644 22.2241 19.6101 21.4072" stroke="#FAFFD8" stroke-linecap="round"/>
<path d="M28.5802 21.9678C28.0343 21.8899 27.4715 21.6475 26.9606 21.4734C25.8865 21.1073 24.8144 20.7401 23.7213 20.4339C23.0577 20.248 22.3847 20.085 21.7124 19.9355" stroke="#FAFFD8" stroke-linecap="round"/>
<path d="M28.4398 15.3804C25.5956 15.9003 22.7644 16.5715 19.9602 17.2725" stroke="#FAFFD8" stroke-linecap="round"/>
<path d="M28.5102 17.2026C26.5149 17.9323 24.5271 18.6574 22.4834 19.2349" stroke="#FAFFD8" stroke-linecap="round"/>
<path d="M13.1931 12.1772C14.4163 13.7233 15.6187 15.2796 16.7493 16.8946" stroke="#FAFFD8" stroke-linecap="round"/>
<path d="M20.6682 10C20.7199 12.3554 20.7751 14.6889 20.6682 17.0398" stroke="#FAFFD8" stroke-linecap="round"/>
<path d="M17.2573 27.9985C17.546 26.4503 17.8928 24.9485 18.2734 23.4263" stroke="#FAFFD8" stroke-linecap="round"/>
<path d="M10 21.0316C11.7902 21.0034 13.5803 20.9798 15.3705 20.959" stroke="#FAFFD8" stroke-linecap="round"/>
</svg>
